<svg width="24" height="25" viewBox="0 0 24 25" fill="none" xmlns="http://www.w3.org/2000/svg">
<path d="M22.54 6.60811C22.4212 6.1378 22.1792 5.70689 21.8386 5.3589C21.498 5.0109 21.0707 4.75815 20.6 4.62617C18.88 4.20996 12 4.20996 12 4.20996C12 4.20996 5.11996 4.20996 3.39996 4.66581C2.92921 4.79779 2.50194 5.05054 2.16131 5.39854C1.82068 5.74653 1.57875 6.17744 1.45996 6.64775C1.14518 8.37754 0.991197 10.1323 0.999961 11.89C0.988741 13.6609 1.14273 15.429 1.45996 17.1719C1.59092 17.6276 1.83827 18.0421 2.17811 18.3754C2.51794 18.7087 2.93878 18.9495 3.39996 19.0745C5.11996 19.5304 12 19.5304 12 19.5304C12 19.5304 18.88 19.5304 20.6 19.0745C21.0707 18.9425 21.498 18.6898 21.8386 18.3418C22.1792 17.9938 22.4212 17.5629 22.54 17.0926C22.8523 15.3758 23.0063 13.6344 23 11.89C23.0112 10.1191 22.8572 8.35093 22.54 6.60811V6.60811Z" stroke="#6E7191" stroke-width="2" stroke-linecap="round" stroke-linejoin="round"/>
<path d="M9.75 15.1304L15.5 11.8899L9.75 8.64941V15.1304Z" stroke="#6E7191" stroke-width="2" stroke-linecap="round" stroke-linejoin="round"/>
</svg>
